<?xml version="1.0" encoding="UTF-8"?>
<!DOCTYPE svg PUBLIC "-//W3C//DTD SVG 1.1//EN" "http://www.w3.org/Graphics/SVG/1.1/DTD/svg11.dtd">
<!-- Creator: CorelDRAW -->
<svg xmlns="http://www.w3.org/2000/svg" xml:space="preserve" width="23.0064mm" height="19.6872mm" version="1.1" style="shape-rendering:geometricPrecision; text-rendering:geometricPrecision; image-rendering:optimizeQuality; fill-rule:evenodd; clip-rule:evenodd"
viewBox="0 0 87.66 75.01"
 xmlns:xlink="http://www.w3.org/1999/xlink"
 xmlns:xodm="http://www.corel.com/coreldraw/odm/2003">
 <defs>
  <style type="text/css">
   <![CDATA[
    .fil0 {fill:#204749}
    .fil3 {fill:#557316;fill-rule:nonzero}
    .fil2 {fill:#6C8F21;fill-rule:nonzero}
    .fil5 {fill:#88B433;fill-rule:nonzero}
    .fil4 {fill:#94C233;fill-rule:nonzero}
    .fil1 {fill:#BFDA83;fill-rule:nonzero}
    .fil6 {fill:#204749;fill-rule:nonzero;fill-opacity:0.231373}
   ]]>
  </style>
 </defs>
 <g id="Camada_x0020_1">
  <metadata id="CorelCorpID_0Corel-Layer"/>
  <path class="fil0" d="M6.41 26.92c-3.51,-1.57 -6.29,-5.14 -6.41,-9 -0.02,-0.55 0.02,-1.1 0.12,-1.64 0.79,-4.3 4.97,-6.97 9.16,-7.05 -0.18,-1.45 0.04,-2.95 0.64,-4.32 0.96,-2.2 2.81,-3.89 5.12,-4.57 3.84,-1.13 8.49,0.67 10.88,3.93 2.44,-1.9 5.87,-2.46 8.87,-1.79 0.21,-0.08 0.42,-0.15 0.63,-0.21 3.84,-1.13 8.49,0.67 10.88,3.93 3.34,-2.61 8.53,-2.68 12.11,-0.49 3.72,2.27 5.93,7.13 4.65,11.31 0.68,0.28 1.33,0.64 1.94,1.07 0.9,0.62 1.72,1.38 2.41,2.24 2.96,-0.9 6.34,-0.52 8.97,1.09 3.72,2.27 5.93,7.13 4.65,11.31 0.68,0.28 1.33,0.64 1.94,1.07 1.81,1.25 3.3,3.07 4.08,5.14l0.01 0.02c0.02,0.04 0.04,0.1 0.06,0.16l0.05 0.15 0.05 0.16c0.02,0.05 0.03,0.11 0.05,0.16 0.37,1.22 0.48,2.52 0.26,3.79 -0.57,3.31 -3.25,5.78 -6.38,6.72 -0.15,0.05 -0.3,0.09 -0.46,0.13 -0.08,0.02 -0.15,0.04 -0.23,0.05 -0.08,0.02 -0.16,0.03 -0.23,0.05 -0.08,0.02 -0.16,0.03 -0.23,0.04 -0.08,0.01 -0.16,0.03 -0.24,0.04 -0.08,0.01 -0.16,0.02 -0.23,0.03 -0.08,0.01 -0.16,0.02 -0.24,0.03 -0.08,0.01 -0.16,0.02 -0.24,0.02 -0.05,0 -0.11,0.01 -0.16,0.01 1.15,4.3 -1.26,9.22 -5.89,10.36 -4,0.98 -8.73,-1.23 -10.97,-4.77 -1.7,1.94 -4.24,3.13 -6.87,3.24 -0.06,0 -0.12,0 -0.18,0.01l-0.21 0 -0.19 -0 -0.19 -0.01 -0.18 -0.01 -0.08 -0 -0.12 -0.01 -0.08 -0.01 -0.2 -0.02 -0.18 -0.02 -0.19 -0.02 -0.21 -0.03 -0.15 -0.02c-0.07,-0.01 -0.14,-0.02 -0.2,-0.04l-0.21 -0.04 -0.17 -0.04 -0.17 -0.04 -0.19 -0.05 -0.18 -0.05 -0.18 -0.05 -0.07 -0.02 -0.18 -0.06 -0.18 -0.06 -0.18 -0.06 -0.19 -0.07 -0.15 -0.06 -0.18 -0.07 -0.18 -0.07 -0.17 -0.07 -0.16 -0.07 -0.17 -0.08 -0.18 -0.09 -0.15 -0.08 -0.16 -0.08 -0.09 -0.05 -0.16 -0.09 -0.16 -0.1 -0.16 -0.09 -0.17 -0.11 -0.14 -0.09 -0.16 -0.1 -0.15 -0.11 -0.14 -0.1 -0.16 -0.12 -0.13 -0.1 -0.13 -0.1 -0.14 -0.12 -0.09 -0.08 -0.13 -0.11 -0.07 -0.06 -0.08 -0.07 -0.14 -0.13 -0.14 -0.14c-2.6,3.77 -5.21,7.53 -7.81,11.3 -1.62,2.35 -3.53,5.11 -6.05,6.56 -3.27,1.88 -6.32,1.05 -9.52,-0.3 -3.38,-1.42 -6.33,-3.07 -7.42,-6.89 -0.52,-1.83 -0.47,-3.83 -0.28,-5.71 0.1,-0.97 0.23,-1.93 0.38,-2.89 0.88,-5.68 1.97,-11.33 3.26,-16.93l-0.05 0.02c-0.05,0.01 -0.1,0.03 -0.15,0.05l-0.01 0c-0.18,0.05 -0.36,0.1 -0.54,0.15l-0.02 0c-0.05,0.01 -0.11,0.03 -0.16,0.04l-0.02 0c-0.11,0.02 -0.23,0.05 -0.35,0.07l-0.21 0.04c-0.12,0.02 -0.24,0.04 -0.34,0.05l-0.04 0c-0.05,0.01 -0.11,0.01 -0.16,0.02l-0.19 0.02 -0.23 0.02c-0.06,0 -0.12,0.01 -0.18,0.01 -4.06,0.17 -8.32,-2.22 -10.2,-5.83 -1.41,-2.71 -1.42,-6.11 -0.2,-8.93z"/>
  <path class="fil1" d="M59.69 34.75c-1.37,1.99 -2.74,3.97 -4.12,5.96 -5.93,8.58 -11.86,17.16 -17.79,25.74 -1.63,2.36 -3.39,4.84 -5.53,6.08 -2.88,1.66 -5.65,0.65 -8.1,-0.39 -2.69,-1.13 -5.54,-2.48 -6.5,-5.85 -0.43,-1.52 -0.41,-3.28 -0.23,-5.11 0.09,-0.93 0.23,-1.87 0.37,-2.8 1.64,-10.59 4,-21.01 7.08,-31.27 1.61,-0.5 4.22,-0.94 6.78,-2.1 -0.24,7.99 -3.98,25.38 -4.22,33.37 2.74,-6.89 8.98,-23.19 11.72,-30.09 2.05,0.52 4.09,1.05 6.14,1.58 -2.36,6.08 -8.48,19.83 -10.84,25.92 4.35,-7.06 13.04,-21.28 18.42,-27.13 2.28,2.02 4.56,4.05 6.83,6.09z"/>
  <path class="fil2" d="M76.28 48.67c2.82,3.8 0.85,9.51 -3.65,10.62 -4.51,1.11 -10.04,-2.76 -10.27,-7.19 -0.72,3.12 -3.76,5.48 -7.24,5.62 -3.48,0.14 -7.14,-1.95 -8.72,-4.97 -1.58,-3.03 -0.95,-6.76 0.71,-9.1 -3.91,-0.83 -7.03,-4.53 -7.13,-8.14 -0.01,-0.44 0.02,-0.87 0.1,-1.3 0.73,-3.98 5.44,-6.62 9.78,-5.49 -1.77,-3.59 0.18,-8.08 4.01,-9.21 3.83,-1.13 8.73,1.34 10.06,5.06 2.32,-3.3 7.8,-4.15 11.64,-1.8 3.84,2.35 5.39,7.49 3.31,10.93 1.17,0.25 2.24,0.71 3.21,1.39 2.69,1.85 4.4,5.06 3.9,7.99 -0.68,3.98 -5.34,6.68 -9.69,5.59z"/>
  <path class="fil3" d="M76.28 48.67c2.82,3.8 0.85,9.51 -3.65,10.62 -4.51,1.11 -10.04,-2.76 -10.27,-7.19 -0.72,3.12 -3.76,5.48 -7.24,5.62 -3.48,0.14 -7.14,-1.95 -8.72,-4.97 -1.58,-3.03 -0.95,-6.76 0.71,-9.1 -3.91,-0.83 -7.03,-4.53 -7.13,-8.14 0.61,0.64 1.25,1.23 1.93,1.79 2.67,2.18 6.07,3.69 9.5,3.46 -2.23,2.44 -1.15,7 1.96,8.3 1.77,0.74 3.86,0.47 5.51,-0.45 1.65,-0.91 2.92,-2.4 3.84,-4.04 -0.1,2.13 1.59,4.18 3.7,4.71 2.11,0.52 4.44,-0.41 5.71,-2.12 1.27,-1.71 1.5,-4.08 0.76,-6.1 2.08,1.64 5.31,1.64 7.35,0 1.71,-1.39 2.42,-3.83 1.85,-5.95 2.69,1.85 4.4,5.06 3.9,7.99 -0.69,3.98 -5.34,6.67 -9.69,5.59z"/>
  <path class="fil2" d="M37.92 31.04c2.82,3.8 0.85,9.51 -3.65,10.62 -4.51,1.11 -10.04,-2.76 -10.27,-7.19 -0.72,3.11 -3.76,5.48 -7.24,5.62 -3.48,0.14 -7.14,-1.95 -8.72,-4.97 -1.58,-3.02 -0.95,-6.76 0.71,-9.1 -3.91,-0.83 -7.03,-4.53 -7.14,-8.14 -0.01,-0.44 0.02,-0.87 0.1,-1.3 0.73,-3.98 5.45,-6.62 9.79,-5.49 -1.77,-3.59 0.18,-8.08 4.01,-9.21 3.83,-1.13 8.73,1.34 10.06,5.06 2.32,-3.3 7.8,-4.15 11.64,-1.8 3.84,2.35 5.39,7.49 3.3,10.93 1.17,0.25 2.24,0.71 3.21,1.39 2.69,1.85 4.4,5.06 3.9,7.99 -0.68,3.98 -5.34,6.66 -9.69,5.59z"/>
  <path class="fil3" d="M37.92 31.04c2.82,3.8 0.85,9.51 -3.65,10.62 -4.51,1.11 -10.04,-2.76 -10.27,-7.19 -0.72,3.11 -3.76,5.48 -7.24,5.62 -3.48,0.14 -7.14,-1.95 -8.72,-4.97 -1.58,-3.02 -0.95,-6.76 0.71,-9.1 -3.91,-0.83 -7.03,-4.53 -7.14,-8.14 0.61,0.64 1.25,1.23 1.93,1.79 2.67,2.18 6.07,3.69 9.5,3.46 -2.22,2.44 -1.15,6.99 1.96,8.3 1.77,0.74 3.86,0.47 5.51,-0.45 1.65,-0.91 2.93,-2.4 3.84,-4.05 -0.1,2.13 1.59,4.19 3.69,4.71 2.1,0.51 4.44,-0.41 5.71,-2.12 1.27,-1.71 1.5,-4.08 0.77,-6.11 2.08,1.64 5.31,1.64 7.35,0 1.71,-1.39 2.42,-3.83 1.85,-5.95 2.69,1.85 4.4,5.06 3.9,7.99 -0.69,3.98 -5.35,6.67 -9.69,5.59z"/>
  <path class="fil4" d="M58.3 32.97c2.82,3.8 0.85,9.51 -3.65,10.62 -4.51,1.11 -10.04,-2.76 -10.27,-7.19 -0.72,3.12 -3.76,5.48 -7.24,5.62 -3.48,0.14 -7.15,-1.96 -8.72,-4.98 -1.57,-3.02 -0.95,-6.76 0.71,-9.11 -3.91,-0.83 -7.03,-4.53 -7.13,-8.14 -0.01,-0.44 0.02,-0.87 0.1,-1.3 0.73,-3.97 5.44,-6.61 9.78,-5.49 -1.77,-3.59 0.18,-8.08 4.01,-9.21 3.83,-1.13 8.73,1.34 10.06,5.07 2.32,-3.3 7.8,-4.15 11.64,-1.8 3.84,2.35 5.4,7.5 3.3,10.93 1.17,0.24 2.24,0.71 3.21,1.39 2.69,1.85 4.4,5.06 3.9,7.99 -0.68,3.98 -5.34,6.67 -9.69,5.6z"/>
  <path class="fil5" d="M58.3 32.97c2.82,3.8 0.85,9.51 -3.65,10.62 -4.51,1.11 -10.04,-2.76 -10.27,-7.19 -0.72,3.12 -3.76,5.48 -7.24,5.62 -3.48,0.14 -7.15,-1.96 -8.72,-4.98 -1.57,-3.02 -0.95,-6.76 0.71,-9.11 -3.91,-0.83 -7.03,-4.53 -7.13,-8.14 0.61,0.64 1.25,1.23 1.93,1.79 2.67,2.18 6.07,3.69 9.5,3.46 -2.23,2.44 -1.15,7 1.96,8.3 1.77,0.74 3.86,0.47 5.51,-0.44 1.65,-0.91 2.92,-2.4 3.84,-4.05 -0.1,2.13 1.59,4.18 3.7,4.71 2.1,0.53 4.44,-0.41 5.71,-2.12 1.27,-1.71 1.5,-4.08 0.76,-6.11 2.08,1.64 5.31,1.64 7.35,0 1.71,-1.39 2.42,-3.83 1.85,-5.95 2.69,1.85 4.4,5.06 3.9,7.99 -0.68,3.98 -5.34,6.66 -9.68,5.6z"/>
  <path class="fil6" d="M33.88 12.05c-0.04,-1.41 0.27,-2.85 1.03,-4.04 0.76,-1.18 1.98,-2.11 3.38,-2.37 1.4,-0.27 2.96,0.18 3.93,1.24 0.4,0.41 0.63,0.9 0.69,1.48 0.02,0.28 -0.03,0.55 -0.16,0.8 -0.13,0.25 -0.31,0.45 -0.56,0.59 -0.65,0.34 -1.45,0.05 -2.18,0.16 -0.81,0.12 -1.45,0.72 -1.98,1.33 -0.53,0.61 -1.02,1.29 -1.73,1.68 -0.71,0.39 -2.39,0.56 -2.43,-0.86z"/>
  <path class="fil6" d="M12.68 9.91c-0.04,-1.41 0.28,-2.85 1.03,-4.03 0.76,-1.17 1.97,-2.11 3.37,-2.38 1.4,-0.27 2.97,0.18 3.93,1.24 0.4,0.41 0.63,0.9 0.69,1.48 0.02,0.28 -0.03,0.55 -0.16,0.8 -0.13,0.25 -0.31,0.45 -0.56,0.59 -0.65,0.34 -1.45,0.05 -2.18,0.16 -0.81,0.12 -1.45,0.72 -1.98,1.33 -0.53,0.61 -1.01,1.29 -1.73,1.68 -0.72,0.39 -2.4,0.56 -2.43,-0.86z"/>
 </g>
</svg>
